<?xml version="1.0" encoding="utf-8"?>
<!-- Generator: Adobe Illustrator 26.5.0, SVG Export Plug-In . SVG Version: 6.00 Build 0)  -->
<svg version="1.1" id="Capa_1" xmlns="http://www.w3.org/2000/svg" xmlns:xlink="http://www.w3.org/1999/xlink" x="0px" y="0px"
	 viewBox="0 0 542.8 119.3" style="enable-background:new 0 0 542.8 119.3;" xml:space="preserve">
<style type="text/css">
	.st0{fill:#303030;}
</style>
<path class="st0" d="M239.5,61.6c0.7-1.8,1.1-4,1.1-6.5h4.4c0,3.8-0.8,7.1-2.4,9.7c0.7,0.7,1.4,1.1,2.1,1.4s1.5,0.4,2.4,0.4h1.1v4
	h-0.9c-0.9,0-1.7,0-2.3-0.1c-0.7-0.1-1.3-0.2-1.9-0.4s-1.1-0.5-1.6-0.8c-0.5-0.3-1-0.8-1.6-1.3c-2.5,2.1-5.7,3.1-9.6,3.1
	c-3.5,0-6.1-0.8-8.1-2.4s-2.9-3.8-2.9-6.7c0-2,0.5-3.8,1.6-5.2s2.8-2.8,5.1-4c-1.1-1.2-1.8-2.4-2.3-3.5s-0.7-2.2-0.7-3.3
	c0-2.1,0.7-3.8,2.2-5.1c1.4-1.3,3.4-2,5.7-2s4.3,0.6,5.7,1.9s2.2,3,2.2,5.1c0,1.6-0.5,3-1.4,4.2c-1,1.2-2.5,2.5-4.7,3.7L239.5,61.6
	L239.5,61.6z M228.6,55.6c-1.5,0.8-2.6,1.6-3.3,2.5s-1,2-1,3.2c0,1.8,0.6,3.2,1.9,4.2c1.3,1,3,1.5,5.1,1.5c2.3,0,4.1-0.6,5.7-1.9
	L228.6,55.6L228.6,55.6z M230.2,50.8c1.5-0.8,2.6-1.6,3.2-2.3c0.6-0.7,0.9-1.6,0.9-2.7c0-1.1-0.3-2-0.9-2.6
	c-0.6-0.6-1.4-0.9-2.5-0.9s-1.9,0.3-2.5,0.8c-0.6,0.5-0.9,1.3-0.9,2.3c0,0.7,0.2,1.5,0.6,2.3S229.2,49.7,230.2,50.8L230.2,50.8z"/>
<path class="st0" d="M39.8,39.8h27.6v5.4H45.8v11.1h18.4v5.4H45.8v12.4h22.1v5.4h-28C39.8,79.5,39.8,39.8,39.8,39.8z M74.6,39.8h7.5
	l19.1,31.9V39.8h5.8v39.8h-7.5L80.4,47.7v31.9h-5.8V39.8z M134,58.7h17.3v20.8H147l-0.5-6.5c-0.6,1.2-1.3,2.2-2.3,3.2
	c-1,0.9-2.1,1.7-3.3,2.4c-1.3,0.7-2.6,1.2-4.1,1.5c-1.5,0.4-3.1,0.6-4.7,0.6c-2.7,0-5.2-0.5-7.4-1.5c-2.2-1-4.1-2.4-5.7-4.2
	c-1.6-1.8-2.8-4-3.7-6.5s-1.3-5.3-1.3-8.5s0.5-6.1,1.4-8.8c0.9-2.6,2.3-4.9,4-6.8c1.7-1.9,3.8-3.3,6.2-4.3c2.4-1,5.1-1.5,8.1-1.5
	c2.3,0,4.4,0.3,6.4,0.9s3.7,1.5,5.1,2.7c1.5,1.2,2.7,2.6,3.7,4.2c1,1.6,1.6,3.5,2,5.5h-6.1c-0.7-2.4-2-4.3-4-5.7c-2-1.4-4.4-2-7.2-2
	c-2,0-3.8,0.3-5.4,1c-1.6,0.7-3,1.7-4.2,2.9c-1.2,1.3-2.1,2.8-2.7,4.6c-0.6,1.8-0.9,3.8-0.9,5.9v1.7c0,2.3,0.3,4.3,0.9,6.1
	c0.6,1.8,1.5,3.3,2.6,4.5c1.1,1.2,2.5,2.2,4.1,2.9s3.4,1,5.4,1c1.9,0,3.6-0.3,5.2-0.8c1.6-0.6,3-1.3,4.2-2.3c1.2-1,2.1-2.2,2.8-3.5
	s1-2.8,1-4.4H134L134,58.7L134,58.7z M159,39.8h27.6v5.4H165v11.1h18.4v5.4H165v12.4h22.1v5.4H159L159,39.8L159,39.8z M193.9,39.8h6
	v34.4h19v5.4h-25L193.9,39.8L193.9,39.8z M249.1,39.8h6.5l11.2,33.1l11.2-33.1h6.1l-13.8,39.8H263L249.1,39.8L249.1,39.8z M305,80.7
	c-2.9,0-5.5-0.5-7.9-1.5c-2.4-1-4.4-2.5-6.1-4.3c-1.7-1.9-3-4.1-4-6.6c-0.9-2.6-1.4-5.4-1.4-8.5s0.5-6,1.4-8.5c1-2.6,2.3-4.8,4-6.6
	s3.7-3.3,6.1-4.3s5-1.5,7.9-1.5s5.5,0.5,7.9,1.5c2.4,1,4.4,2.5,6.1,4.3c1.7,1.9,3,4.1,4,6.6c1,2.6,1.4,5.4,1.4,8.5s-0.5,5.9-1.4,8.5
	c-0.9,2.6-2.3,4.8-4,6.6c-1.7,1.9-3.8,3.3-6.1,4.3C310.5,80.2,307.9,80.7,305,80.7z M305,75c2,0,3.8-0.3,5.4-1
	c1.6-0.7,3-1.7,4.1-2.9c1.1-1.3,2-2.8,2.6-4.6c0.6-1.8,1-3.7,1-5.9v-1.8c0-2.2-0.3-4.1-1-5.9c-0.6-1.8-1.5-3.3-2.7-4.6
	s-2.5-2.2-4.1-2.9c-1.6-0.7-3.4-1-5.3-1s-3.7,0.3-5.3,1s-3,1.7-4.1,2.9c-1.1,1.3-2,2.8-2.7,4.6c-0.6,1.8-1,3.7-1,5.9v1.8
	c0,2.2,0.3,4.1,1,5.9c0.6,1.8,1.5,3.3,2.6,4.6s2.5,2.2,4.1,2.9S303.1,75,305,75L305,75z M296.3,30.7h5.8v5.7h-5.8
	C296.3,36.4,296.3,30.7,296.3,30.7z M308,30.7h5.8v5.7H308C308,36.4,308,30.7,308,30.7z M331.2,39.8h6v34.4h19v5.4h-25L331.2,39.8
	L331.2,39.8z M362.1,39.8h6v19.6l19.2-19.6h7.5l-16.1,16.1l16.7,23.7h-7.3L374.7,60l-6.6,6.6v12.9h-6
	C362.1,79.5,362.1,39.8,362.1,39.8z M400.5,39.8h27.6v5.4h-21.6v11.1h18.4v5.4h-18.4v12.4h22.1v5.4h-28L400.5,39.8L400.5,39.8z
	 M435.4,39.8h18.4c1.9,0,3.6,0.3,5.1,0.8c1.5,0.5,2.8,1.2,3.8,2.2c1.1,0.9,1.9,2.1,2.5,3.4c0.6,1.3,0.9,2.8,0.9,4.4
	c0,2.3-0.6,4.3-1.8,6c-1.2,1.7-2.9,2.9-5.1,3.7c1.4,0.4,2.4,1,3.1,2c0.7,0.9,1.3,2.3,1.7,4.2l2.6,13.2h-6.1l-2.4-12.3
	c-0.1-0.8-0.4-1.5-0.6-2c-0.3-0.5-0.6-0.9-1.1-1.2c-0.4-0.3-1-0.5-1.7-0.6s-1.5-0.2-2.5-0.2h-10.9v16.3h-6L435.4,39.8L435.4,39.8z
	 M452.5,58.2c2.3,0,4.1-0.6,5.5-1.8c1.4-1.2,2.1-2.8,2.1-4.8s-0.7-3.6-2-4.8c-1.4-1.2-3.2-1.8-5.5-1.8h-11.1v13.2L452.5,58.2
	L452.5,58.2z M476.7,67.2c0.5,5.5,4.2,8.2,11,8.2c6.1,0,9.2-2.2,9.2-6.6c0-1.6-0.4-2.8-1.3-3.7c-0.9-0.9-2.3-1.6-4.4-2.2l-9.9-2.8
	c-3.1-0.9-5.4-2.1-6.9-3.8c-1.5-1.6-2.2-3.8-2.2-6.4c0-3.6,1.3-6.4,3.8-8.4c2.5-2,6.1-3,10.8-3c4.9,0,8.7,1.1,11.2,3.4
	s3.9,5.6,4.1,10h-5.9c-0.2-2.9-1.1-4.9-2.6-6.2c-1.5-1.2-3.8-1.9-7-1.9c-5.5,0-8.3,1.9-8.3,5.6c0,1.3,0.4,2.4,1.2,3.2s2.1,1.5,4,2
	l9.9,2.8c3.4,1,5.9,2.3,7.4,3.9c1.5,1.6,2.2,3.8,2.2,6.6c0,4-1.4,7.1-4.1,9.2c-2.7,2.2-6.5,3.3-11.5,3.3s-9.1-1.2-12-3.5
	s-4.4-5.7-4.6-10.1L476.7,67.2L476.7,67.2z"/>
</svg>
