<?xml version="1.0" encoding="UTF-8"?><svg id="Capa_1" xmlns="http://www.w3.org/2000/svg" viewBox="0 0 542.78 119.3"><defs><style>.cls-1{fill:#fff;}</style></defs><path class="cls-1" d="M239.5,61.56c.74-1.8,1.11-3.98,1.11-6.52h4.35c0,3.85-.8,7.09-2.38,9.7,.71,.67,1.4,1.13,2.07,1.38s1.47,.37,2.39,.37h1.06v4.03h-.85c-.88,0-1.66-.03-2.33-.11-.67-.07-1.29-.21-1.86-.42s-1.1-.49-1.59-.85c-.49-.35-1.03-.8-1.59-1.33-2.47,2.05-5.67,3.08-9.6,3.08-3.46,0-6.15-.79-8.06-2.36-1.91-1.57-2.86-3.79-2.86-6.65,0-2.01,.52-3.75,1.56-5.2,1.04-1.45,2.75-2.79,5.12-4.03-1.06-1.24-1.83-2.4-2.31-3.5-.48-1.1-.71-2.21-.71-3.34,0-2.12,.72-3.83,2.17-5.14,1.45-1.31,3.36-1.96,5.73-1.96s4.28,.64,5.73,1.91c1.45,1.27,2.17,2.97,2.17,5.09,0,1.59-.48,3-1.43,4.24-.96,1.24-2.53,2.47-4.72,3.71l6.84,7.9Zm-10.92-5.99c-1.52,.78-2.62,1.63-3.31,2.55-.69,.92-1.03,2-1.03,3.23,0,1.77,.64,3.15,1.91,4.16,1.27,1.01,2.97,1.51,5.09,1.51,2.26,0,4.15-.62,5.67-1.86l-8.32-9.6Zm1.64-4.72c1.52-.81,2.58-1.59,3.18-2.33,.6-.74,.9-1.63,.9-2.65,0-1.13-.29-1.99-.88-2.57-.58-.58-1.4-.87-2.47-.87s-1.9,.27-2.52,.82c-.62,.55-.93,1.32-.93,2.31,0,.74,.2,1.52,.61,2.33,.41,.81,1.1,1.8,2.09,2.97Z"/><path class="cls-1" d="M39.77,39.77h27.57v5.41h-21.58v11.13h18.4v5.41h-18.4v12.41h22.06v5.41h-28.05V39.77Zm34.84,0h7.53l19.09,31.87v-31.87h5.83v39.77h-7.53l-19.09-31.87v31.87h-5.83V39.77Zm59.38,18.98h17.34v20.79h-4.35l-.48-6.47c-.57,1.17-1.33,2.22-2.28,3.15-.96,.94-2.06,1.73-3.31,2.39-1.26,.65-2.63,1.17-4.14,1.54-1.5,.37-3.08,.56-4.74,.56-2.72,0-5.2-.49-7.42-1.46-2.23-.97-4.14-2.36-5.73-4.16-1.59-1.8-2.83-3.97-3.71-6.5-.88-2.53-1.32-5.35-1.32-8.46s.47-6.14,1.41-8.78c.94-2.63,2.27-4.89,4-6.76,1.73-1.87,3.81-3.32,6.23-4.35,2.42-1.02,5.12-1.54,8.09-1.54,2.3,0,4.42,.31,6.36,.93,1.94,.62,3.66,1.51,5.14,2.68,1.48,1.17,2.7,2.57,3.66,4.22,.96,1.64,1.61,3.49,1.96,5.54h-6.1c-.67-2.4-2.01-4.29-4-5.65-2-1.36-4.41-2.04-7.24-2.04-1.98,0-3.78,.34-5.41,1.03-1.63,.69-3.02,1.67-4.19,2.94-1.17,1.27-2.07,2.79-2.7,4.56-.64,1.77-.95,3.75-.95,5.94v1.7c0,2.26,.3,4.29,.9,6.07,.6,1.79,1.47,3.3,2.6,4.53,1.13,1.24,2.5,2.19,4.11,2.86,1.61,.67,3.42,1.01,5.43,1.01,1.87,0,3.61-.28,5.22-.85,1.61-.56,3-1.34,4.16-2.33,1.17-.99,2.09-2.16,2.76-3.5,.67-1.34,1.01-2.81,1.01-4.4h-12.3v-5.2Zm25.03-18.98h27.57v5.41h-21.58v11.13h18.4v5.41h-18.4v12.41h22.06v5.41h-28.05V39.77Zm34.84,0h5.99v34.36h19.03v5.41h-25.03V39.77Zm55.2,0h6.47l11.19,33.14,11.19-33.14h6.1l-13.84,39.77h-7.21l-13.89-39.77Zm55.99,40.93c-2.86,0-5.48-.51-7.85-1.54-2.37-1.02-4.41-2.47-6.12-4.32-1.72-1.86-3.04-4.06-3.98-6.63-.94-2.56-1.41-5.4-1.41-8.51s.48-5.95,1.43-8.51c.96-2.56,2.28-4.77,3.98-6.63,1.7-1.86,3.73-3.3,6.1-4.32,2.37-1.02,4.99-1.54,7.85-1.54s5.48,.51,7.85,1.54c2.37,1.03,4.4,2.47,6.1,4.32,1.7,1.86,3.02,4.07,3.98,6.63,.96,2.56,1.43,5.4,1.43,8.51s-.47,5.95-1.41,8.51c-.94,2.56-2.26,4.77-3.98,6.63-1.71,1.86-3.76,3.3-6.12,4.32-2.37,1.02-4.98,1.54-7.85,1.54Zm0-5.67c1.98,0,3.77-.34,5.38-1.03,1.61-.69,2.98-1.67,4.11-2.94,1.13-1.27,2.02-2.79,2.65-4.56,.64-1.77,.96-3.73,.96-5.89v-1.8c0-2.16-.32-4.12-.96-5.89-.64-1.77-1.53-3.29-2.68-4.56-1.15-1.27-2.53-2.25-4.14-2.94-1.61-.69-3.38-1.03-5.33-1.03s-3.72,.34-5.33,1.03c-1.61,.69-2.99,1.67-4.14,2.94-1.15,1.27-2.04,2.79-2.68,4.56-.64,1.77-.95,3.73-.95,5.89v1.8c0,2.16,.32,4.12,.95,5.89,.64,1.77,1.52,3.29,2.65,4.56,1.13,1.27,2.51,2.25,4.14,2.94,1.63,.69,3.41,1.03,5.35,1.03Zm-8.75-44.33h5.83v5.67h-5.83v-5.67Zm11.66,0h5.83v5.67h-5.83v-5.67Zm23.22,9.07h5.99v34.36h19.03v5.41h-25.03V39.77Zm30.97,0h5.99v19.56l19.25-19.56h7.53l-16.07,16.12,16.7,23.65h-7.26l-13.57-19.51-6.58,6.63v12.88h-5.99V39.77Zm38.39,0h27.57v5.41h-21.58v11.13h18.4v5.41h-18.4v12.41h22.06v5.41h-28.05V39.77Zm34.84,0h18.4c1.87,0,3.56,.26,5.06,.77,1.5,.51,2.78,1.24,3.84,2.17,1.06,.94,1.88,2.06,2.47,3.37,.58,1.31,.87,2.78,.87,4.4,0,2.33-.59,4.34-1.78,6.02-1.18,1.68-2.87,2.93-5.06,3.74,1.38,.39,2.43,1.05,3.15,1.99,.72,.94,1.28,2.32,1.67,4.16l2.65,13.15h-6.15l-2.39-12.3c-.14-.81-.35-1.48-.61-1.99-.27-.51-.62-.92-1.06-1.22-.44-.3-1-.51-1.67-.64s-1.52-.19-2.54-.19h-10.87v16.33h-5.99V39.77Zm17.13,18.4c2.26,0,4.08-.59,5.46-1.78,1.38-1.18,2.07-2.78,2.07-4.8s-.68-3.61-2.04-4.8c-1.36-1.18-3.19-1.78-5.49-1.78h-11.13v13.15h11.13Zm24.23,9.01c.53,5.48,4.19,8.22,10.98,8.22,6.11,0,9.17-2.19,9.17-6.57,0-1.56-.42-2.77-1.27-3.66-.85-.88-2.32-1.61-4.4-2.17l-9.92-2.81c-3.11-.88-5.4-2.14-6.87-3.76-1.47-1.63-2.2-3.75-2.2-6.36,0-3.61,1.27-6.4,3.82-8.38,2.54-1.98,6.13-2.97,10.76-2.97,4.91,0,8.66,1.13,11.24,3.39,2.58,2.26,3.94,5.59,4.08,9.97h-5.89c-.25-2.86-1.11-4.92-2.57-6.18-1.47-1.25-3.79-1.88-6.97-1.88-5.55,0-8.32,1.86-8.32,5.57,0,1.34,.39,2.42,1.17,3.23,.78,.81,2.1,1.48,3.98,2.02l9.91,2.81c3.43,.99,5.89,2.3,7.37,3.92,1.48,1.63,2.23,3.84,2.23,6.63,0,3.99-1.35,7.08-4.06,9.25-2.7,2.17-6.55,3.26-11.53,3.26s-9.11-1.16-11.96-3.47c-2.85-2.31-4.39-5.66-4.64-10.05h5.89Z"/></svg>